<?xml version="1.0" encoding="UTF-8"?><svg xmlns="http://www.w3.org/2000/svg" xmlns:xlink="http://www.w3.org/1999/xlink" height="284.5" preserveAspectRatio="xMidYMid meet" version="1.0" viewBox="15.6 -3.7 232.7 284.5" width="232.7" zoomAndPan="magnify"><g id="change1_1"><path d="M247.5,112.5c-0.3-5.8-1.8-11.4-4.5-16.5c-1.4-5.8-4.2-11.3-8.1-15.8c-0.1-0.3-0.3-0.7-0.4-1 c-2.2-5-5.3-9.5-9.3-13.2c-6.3-9.2-16.5-15-27.7-15.7c-1.4-0.1-2.8-0.2-4.1-0.4c-4.3-5.1-7.7-9.9-10.9-14.3 C173.4,23,166.9,13.9,150,10.9c-7.8-1.5-15.5-3.6-22.9-6.4c-14.3-5.1-23-8.2-49.4,4.5c-4.2,2.2-8.1,5.1-11.4,8.5 c-2.2,1.4-4.6,2.9-7.1,4.7c-3.8,2.7-7.7,6.9-11.2,12.3c-2.8,2.5-5.8,5.4-9,8.8c-2.9,3.3-5.3,7-7.1,11c-1.2,1.6-2.5,3.4-3.9,5.3 c-8.7,12.2-12.4,40.1-4.1,62c5.7,15,16,24.6,29.8,27.8c8.9,2,17.2,5.9,24.3,11.6c-0.9,15.4-4.2,32.2-8.3,49.8 c-5,21.8,5.7,45.5,25.9,57.8c6.8,4.2,14.6,6.7,22.6,7.1c8.4,3.5,17.7,4.6,26.7,2.9c1.2,0.3,2.4,0.5,3.6,0.8c7.4,1.4,15,1.1,22.2-1 c11.4,0.1,21.6-3.5,29.6-10c6.4-5.4,11.3-12.4,14.2-20.3c7.3-19.5,16.7-54.3,21.1-88.4c0.1-0.8,0.2-1.6,0.3-2.5 C243.3,141.8,248.3,126.2,247.5,112.5z M236.6,150.9l0.1-0.6c5.3-15.3,8.8-31.1,7.9-44.8c0.6,2.4,0.9,4.8,1.1,7.2 C246.2,124.1,242.7,137.2,236.6,150.9z M170.3,276.2h-1.4c-4.1-0.2-8.3-0.8-12.3-1.9c5.6-3,10.6-7,14.6-11.9 c13.5-15.8,34.1-45.5,49.7-76.1c2.5-4.8,5-10.1,7.4-15.5l0.5-0.9c-9.6,35-24.3,68.7-32.9,84.5C190,265.5,181,272.9,170.3,276.2z M144.8,276.4c-3.4-0.9-6.6-2-9.8-3.5c2.2-0.8,4.4-1.8,6.5-3c3,1.9,6.2,3.4,9.6,4.7C149.1,275.3,147,275.9,144.8,276.4z M118.5,273.6c-20.9-8.6-34.5-29.5-33.2-50.8c1.3-19.9,2-38.6-0.3-55.2c1,1.1,1.9,2.1,2.9,3.3c8.2,17.6,12.2,39.8,15.6,63.8 c2.3,15.8,12.3,29.6,26.3,37.8C126.2,273.3,122.3,273.7,118.5,273.6L118.5,273.6z M33.3,55.6c2.5-3.3,5.3-6.5,8.3-9.5 c-4.5,10-7.4,21.7-7.2,33.1c0.3,16,6.7,28.5,18.7,36.2c11.5,7.3,20.2,18.2,24.8,31c0.1,1.7,0.2,3.4,0.2,5.2 c-6.9-7.9-15.6-14-25.4-17.7c-16-6.1-22.1-19.8-24.5-30.2C25.1,90.1,26.8,69.9,33.3,55.6L33.3,55.6z M81,12.4 c9.9-3.5,16.8-2.3,26-0.6c7.9,1.6,15.9,2.5,23.9,2.7c16.3,0.3,23.6,7.6,34.6,18.6c5.2,5.3,10.6,10.4,16.3,15.2 c-1.9-0.3-3.6-0.6-5.4-1c-13-5.5-22.2-11.5-30.2-16.8c-13-8.5-22.3-14.6-39.2-11.4c-7.8,1.4-15.7,2.2-23.7,2.2 c-7.8,0.2-13.9,0.3-20.8,3.2c1.5-1.9,3-3.7,4.6-5.4C71.6,16.5,76.2,14.2,81,12.4z M223.7,67.4c0.4,0.6,0.8,1.2,1.2,1.8 c0.9,1.4,1.7,2.9,2.5,4.4c-1.7-1.1-3.5-2.1-5.4-2.9c-6.2-2.8-12.2-5.9-18-9.3c-1.3-1.3-2.6-2.6-3.8-3.8c2.4,0.6,4.9,1.3,7.5,1.8 C213.7,60.6,219.2,63.4,223.7,67.4z M241.4,97.8c2.7,12.4,0.8,27.5-4,43.6c2.8-16.6,4-33.8,1.2-48.4c0.9,1.2,1.7,2.5,2.5,3.8 C241.2,97.1,241.3,97.4,241.4,97.8z M83.6,158.8c-0.9-4.4-2.2-8.7-3.7-12.9c-1.2-18.3-7.2-34.4-21.7-47.4 c-12.7-11.4-13.6-26.4-12-37c1.1-7.4,4.1-16.1,8.4-24.3c4.6-1.9,9.3-2.6,14.8-3.5c8-1.1,15.8-3,23.4-5.5c15.5-5.2,24.8-0.8,38.8,5.8 c10.4,5,23.8,11.3,44.2,15.3c4.2,1.8,8.8,3.5,13.8,5.1c3.9,2.8,8.2,5.7,13.1,8.5c8.2,8,17.2,15.1,26.8,21.5c0.9,0.6,1.7,1.2,2.5,1.8 c4.3,15.6,4.8,35.1,3.3,55.2c-0.8,4.7-1.8,9.5-2.9,14.3c-1.8,4.8-3.9,9.6-6,14.4c-22.8,38.6-60.1,77.2-77.7,92.2 c-2.2,1.9-4.7,3.6-7.2,5.1c-10.3-6.4-17.9-16.4-21.4-28c-8-27.6-16.2-52.6-30.6-69.9C87.9,165.9,85.9,162.3,83.6,158.8z M80.5,154.4 l-0.3-0.4c0-0.3,0-0.6,0-0.8C80.2,153.6,80.3,154,80.5,154.4z M56.8,100c12.3,11.1,18.3,24.5,20.4,39.7c-5.1-10.7-13-19.7-23-26 c-14.4-9.3-17.6-23.9-17.8-34.6s3.2-24.8,9.1-36.5c1.8-1.5,3.8-2.8,5.9-3.9c-3.6,7.1-6,14.7-7.2,22.5C41.9,77.1,46.3,90.5,56.8,100z M231.1,83.1l-0.4-0.3c-7.2-4.8-14.1-10-20.6-15.7c3.4,1.8,7.1,3.6,11.1,5.4c2.8,1.3,5.4,2.9,7.8,4.8 C229.8,79.2,230.5,81.1,231.1,83.1z M238.1,117.9c-0.1-9.9-1.3-19.8-3.4-29.5c0.4,0.4,0.9,0.9,1.3,1.3 C238,98.1,238.6,107.7,238.1,117.9L238.1,117.9z M233.8,85.1c-0.5-1.6-1-3.2-1.5-4.8c0.3,0.3,0.6,0.7,0.9,1c0.7,1.5,1.2,3.1,1.7,4.8 C234.6,85.7,234.2,85.4,233.8,85.1z M230.6,76.1L230.6,76.1L230.6,76.1L230.6,76.1z M197.2,57.2l-1.2-0.8l0.7,0.2L197.2,57.2z M190.6,52.6l-1.7-1.3l3.6,0.4l1.7,2C192.9,53.4,191.7,53,190.6,52.6z M83.5,23.4c8.1,0,16.1-0.8,24-2.2c16.1-3,24.7,2.6,37.7,11.1 c7.1,4.8,14.6,9.2,22.2,13.1c-15.1-3.8-25.7-8.8-34.9-13.2c-14-6.6-24.1-11.4-40.3-5.9c-7.5,2.5-15.3,4.3-23.2,5.4 c-4.4,0.6-8.7,1.5-13,2.8c1.2-2.2,2.6-4.3,4-6.4C68.1,23.7,74.8,23.6,83.5,23.4z M53,35.7c-1.8,0.8-3.6,1.7-5.2,2.8 c0.5-0.9,1-1.7,1.6-2.6c2.1-1.8,4.3-3.6,6.5-5.2C54.9,32.3,53.9,34,53,35.7z M81.8,159.7c0.2,0.7,0.3,1.4,0.4,2.2 c-0.7-0.6-1.4-1.2-2.2-1.8c0-0.9,0.1-1.8,0.1-2.7C80.6,158.1,81.2,158.9,81.8,159.7L81.8,159.7z M105.6,234.3 c-3-20.9-6.4-40.4-12.6-56.8c11.2,16.5,18.4,38.5,25.3,62.6c3.5,11.7,11.1,21.9,21.3,28.6c-2.2,1.2-4.6,2.2-7,3 C118.2,263.9,107.8,250.1,105.6,234.3L105.6,234.3z M143.6,268.7c2.3-1.4,4.5-3,6.6-4.8c15.8-13.5,40.9-39.5,61.2-67.2 c2.4-3.3,5-6.9,7.5-10.6c-16.5,31.9-37.4,61.4-49,75c-4.3,5.2-9.8,9.4-15.9,12.3C150.3,272.3,146.8,270.7,143.6,268.7L143.6,268.7z M238.8,89.9c-0.3-0.4-0.7-0.8-1-1.2c-0.1-0.6-0.3-1.2-0.5-1.8C237.8,87.9,238.3,88.9,238.8,89.9z M197.3,52.2 c7.8,0.5,15.2,3.7,20.9,8.9c-3.2-1.7-6.6-2.9-10.1-3.7c-3.7-0.8-7.2-1.7-10.5-2.7c-0.8-0.9-1.6-1.8-2.4-2.7L197.3,52.2z M78.6,10.7 c9.3-4.5,16.3-6.9,22.1-8c10.3-1.9,16.9,0.4,25.8,3.6c7.5,2.9,15.3,5,23.2,6.5c16.1,2.9,22.1,11.2,31.2,23.9 c2.8,3.9,5.9,8.2,9.7,12.8c-1.7-0.2-3.3-0.4-4.9-0.6c-6.6-5.3-12.9-11.1-18.8-17.2c-10.9-11-18.8-18.9-36-19.2 c-7.9-0.2-15.8-1.1-23.6-2.7c-11-2-18.8-3.5-31.8,2.6C76.5,11.8,77.5,11.2,78.6,10.7z M60.4,23.8l0.8-0.6c-0.9,1.1-1.7,2.2-2.5,3.4 c-1.6,0.9-3.1,1.9-4.5,2.9C56,27.3,58.1,25.4,60.4,23.8z M44.3,40.6l-0.4,0.7c-0.7,0.5-1.3,1.1-2,1.8C42.7,42.2,43.5,41.4,44.3,40.6 z M54.1,147.4c-16.6-3.9-24.6-16.6-28.4-26.5c-6.3-16.5-6.4-44.5,3.2-59.2c-4.2,12.6-5.8,28.4-2.6,42.5 c3.5,15.6,12.4,26.5,25.7,31.6c10.3,3.9,19.3,10.4,26.1,19c0,1.2,0,2.5-0.1,3.7C70.9,153.1,62.7,149.4,54.1,147.4z M71.6,211.1 c3.9-17.1,7.2-33.5,8.2-48.6c1,0.8,1.9,1.7,2.9,2.6c2.7,17.1,2,36.7,0.7,57.5c-1.4,20.4,10.5,40.2,29.1,50.3 c-5.7-1.1-11.1-3.1-16-6.2C77.1,255,66.8,232.1,71.6,211.1z M123.9,275.4c1.3-0.1,2.7-0.3,4-0.5c1.5-0.3,3-0.7,4.5-1.1 c2.5,1.3,5.1,2.4,7.8,3.3C134.7,277.5,129.2,277,123.9,275.4L123.9,275.4z M149.2,277.3c0.6-0.2,1.2-0.4,1.8-0.6 c1-0.4,2-0.8,2.9-1.2c3.1,1,6.2,1.7,9.4,2.1C158.7,278.3,153.9,278.1,149.2,277.3L149.2,277.3z M212.6,247.1 c-6.2,16.5-19.3,26.8-35.9,28.7c1.4-0.7,2.8-1.4,4.2-2.2c7.1-4.5,12.9-10.7,16.9-18.2c9.9-18.3,24-51.5,33.1-84.6 c0.7-2.6,1.4-5.3,2.1-8.1c0-0.1,0.1-0.2,0.1-0.2C228.2,197.3,218.8,230.8,212.6,247.1L212.6,247.1z" fill="#231F20"/></g></svg>