<svg xmlns="http://www.w3.org/2000/svg" xmlns:xlink="http://www.w3.org/1999/xlink" preserveAspectRatio="xMidYMid meet" version="1.0" viewBox="-4.5 13.7 507.7 436.9" zoomAndPan="magnify" style="fill: rgb(0, 0, 0);" original_string_length="857" height="437px" width="508px"><g id="__id150_snw1qa0jk"><path d="M215.13,449.62c-62.87,0.97-114.86-21.74-156.72-66.89c-24.09-25.99-41.87-56.22-52.64-90.12 c-10.24-32.27-6.13-63.9,6.57-94.69c14.58-35.35,40.64-59.4,75-75.05c22.8-10.38,46.67-16.04,71.76-17.17 c9.33-0.42,18.7-0.96,28.03-1.67c16.59-1.27,31.66-7.37,46-15.43c8.18-4.59,15.78-10.03,23.17-15.84 c18.78-14.75,37.88-29.02,59.23-40.03c36.84-19,73.24-15.68,106.82,5.99c43.23,27.91,70.14,68.22,76.13,119.92 c4.73,40.82-1.8,80.75-17.24,119.02c-17.67,43.82-46.7,78.76-84.22,106.89c-42.25,31.69-89.26,52.78-141.34,62.17 C241.99,449.19,228.09,449.83,215.13,449.62z" style="fill: rgb(179, 77, 77);"></path></g></svg>